<?xml version="1.0" encoding="UTF-8" ?>
<svg xmlns="http://www.w3.org/2000/svg" xmlns:xlink="http://www.w3.org/1999/xlink" width="1919pt" height="1407pt" viewBox="0.00 0.00 1919.16 1406.87">
<g id="graph0" class="graph" transform="scale(1 1) rotate(0) translate(4 1402.8737)">
<title>%0</title>
<polygon fill="#ffffff" stroke="transparent" points="-4,4 -4,-1402.8737 1915.1596,-1402.8737 1915.1596,4 -4,4"/>
<!-- qx -->
<g id="node1" class="node">
<title>qx</title>
<polygon fill="none" stroke="#ff0000" points="336.1596,-1349.4721 377.4337,-1386.3745 294.8854,-1386.3745 336.1596,-1349.4721"/>
<text text-anchor="middle" x="336.1596" y="-1369.8737" font-family="Times,serif" font-size="14.00" fill="#000000">qx</text>
</g>
<!-- gz -->
<g id="node2" class="node">
<title>gz</title>
<polygon fill="none" stroke="#ff0000" points="251.1596,-1188.4352 291.2673,-1225.3376 211.0518,-1225.3376 251.1596,-1188.4352"/>
<text text-anchor="middle" x="251.1596" y="-1208.8368" font-family="Times,serif" font-size="14.00" fill="#000000">gz</text>
</g>
<!-- qx&#45;&gt;gz -->
<g id="edge1" class="edge">
<title>qx-&gt;gz</title>
<path fill="none" stroke="#000000" d="M327.2237,-1357.1443C311.6953,-1327.7249 279.754,-1267.2105 262.619,-1234.7473"/>
<polygon fill="#000000" stroke="#000000" points="265.5744,-1232.8484 257.8111,-1225.6385 259.3838,-1236.116 265.5744,-1232.8484"/>
</g>
<!-- hl -->
<g id="node36" class="node">
<title>hl</title>
<polygon fill="none" stroke="#ff0000" points="251.1596,-1027.3984 288.3544,-1064.3008 213.9647,-1064.3008 251.1596,-1027.3984"/>
<text text-anchor="middle" x="251.1596" y="-1047.8" font-family="Times,serif" font-size="14.00" fill="#000000">hl</text>
</g>
<!-- gz&#45;&gt;hl -->
<g id="edge88" class="edge">
<title>gz-&gt;hl</title>
<path fill="none" stroke="#000000" d="M251.1596,-1188.2277C251.1596,-1157.2477 251.1596,-1104.6864 251.1596,-1074.717"/>
<polygon fill="#000000" stroke="#000000" points="254.6597,-1074.4292 251.1596,-1064.4293 247.6597,-1074.4293 254.6597,-1074.4292"/>
</g>
<!-- tr -->
<g id="node3" class="node">
<title>tr</title>
<polygon fill="none" stroke="#ff0000" points="1773.1596,-513.7984 1806.8999,-550.7008 1739.4192,-550.7008 1773.1596,-513.7984"/>
<text text-anchor="middle" x="1773.1596" y="-534.2" font-family="Times,serif" font-size="14.00" fill="#000000">tr</text>
</g>
<!-- rm -->
<g id="node4" class="node">
<title>rm</title>
<polygon fill="none" stroke="#ff0000" points="1787.1596,-428.1984 1830.7133,-465.1008 1743.6058,-465.1008 1787.1596,-428.1984"/>
<text text-anchor="middle" x="1787.1596" y="-448.6" font-family="Times,serif" font-size="14.00" fill="#000000">rm</text>
</g>
<!-- tr&#45;&gt;rm -->
<g id="edge2" class="edge">
<title>tr-&gt;rm</title>
<path fill="none" stroke="#000000" d="M1776.6202,-517.2404C1778.6952,-504.5538 1781.3331,-488.4246 1783.4508,-475.4766"/>
<polygon fill="#000000" stroke="#000000" points="1786.9234,-475.9278 1785.0834,-465.4939 1780.0152,-474.7978 1786.9234,-475.9278"/>
</g>
<!-- pf -->
<g id="node20" class="node">
<title>pf</title>
<polygon fill="none" stroke="#00ff00" points="1649.928,-898.8 1618.3911,-898.8 1607.1596,-862.8 1661.1596,-862.8 1649.928,-898.8"/>
<text text-anchor="middle" x="1634.1596" y="-876.6" font-family="Times,serif" font-size="14.00" fill="#000000">pf</text>
</g>
<!-- rm&#45;&gt;pf -->
<g id="edge14" class="edge">
<title>rm-&gt;pf</title>
<path fill="none" stroke="#000000" d="M1794.4479,-465.4251C1801.0734,-477.4392 1810.6333,-496.2132 1816.1596,-513.6 1831.2408,-561.0489 1835.1596,-574.212 1835.1596,-624 1835.1596,-709.6 1835.1596,-709.6 1835.1596,-709.6 1835.1596,-796.516 1724.8882,-848.6 1667.6981,-869.7677"/>
<polygon fill="#000000" stroke="#000000" points="1666.2355,-866.574 1658.0062,-873.247 1668.6007,-873.1623 1666.2355,-866.574"/>
</g>
<!-- ml -->
<g id="node21" class="node">
<title>ml</title>
<polygon fill="none" stroke="#ff0000" points="1787.1596,-342.5984 1829.5888,-379.5008 1744.7303,-379.5008 1787.1596,-342.5984"/>
<text text-anchor="middle" x="1787.1596" y="-363" font-family="Times,serif" font-size="14.00" fill="#000000">ml</text>
</g>
<!-- rm&#45;&gt;ml -->
<g id="edge15" class="edge">
<title>rm-&gt;ml</title>
<path fill="none" stroke="#000000" d="M1787.1596,-428.0409C1787.1596,-416.0671 1787.1596,-401.7873 1787.1596,-390.072"/>
<polygon fill="#000000" stroke="#000000" points="1790.6597,-389.7845 1787.1596,-379.7846 1783.6597,-389.7846 1790.6597,-389.7845"/>
</g>
<!-- qr -->
<g id="node5" class="node">
<title>qr</title>
<polygon fill="none" stroke="#ff0000" points="516.1596,-85.7984 554.4793,-122.7008 477.8398,-122.7008 516.1596,-85.7984"/>
<text text-anchor="middle" x="516.1596" y="-106.2" font-family="Times,serif" font-size="14.00" fill="#000000">qr</text>
</g>
<!-- kx -->
<g id="node6" class="node">
<title>kx</title>
<polygon fill="none" stroke="#00ff00" points="763.1146,-984.4 729.2045,-984.4 717.1278,-948.4 775.1914,-948.4 763.1146,-984.4"/>
<text text-anchor="middle" x="746.1596" y="-962.2" font-family="Times,serif" font-size="14.00" fill="#000000">kx</text>
</g>
<!-- qr&#45;&gt;kx -->
<g id="edge3" class="edge">
<title>qr-&gt;kx</title>
<path fill="none" stroke="#000000" d="M512.7262,-122.7456C505.2494,-150.7553 488.1596,-221.3658 488.1596,-281.6 488.1596,-795.2 488.1596,-795.2 488.1596,-795.2 488.1596,-847.6974 491.4211,-870.1696 530.1596,-905.6 556.7056,-929.8792 657.3705,-950.7712 711.3939,-960.5267"/>
<polygon fill="#000000" stroke="#000000" points="711.0832,-964.0261 721.5409,-962.327 712.3061,-957.1338 711.0832,-964.0261"/>
</g>
<!-- jm -->
<g id="node7" class="node">
<title>jm</title>
<polygon fill="none" stroke="#ff0000" points="483.1596,-.1984 525.5888,-37.1008 440.7303,-37.1008 483.1596,-.1984"/>
<text text-anchor="middle" x="483.1596" y="-20.6" font-family="Times,serif" font-size="14.00" fill="#000000">jm</text>
</g>
<!-- qr&#45;&gt;jm -->
<g id="edge4" class="edge">
<title>qr-&gt;jm</title>
<path fill="none" stroke="#000000" d="M509.1611,-92.2464C504.0153,-78.8984 496.9991,-60.6989 491.5518,-46.569"/>
<polygon fill="#000000" stroke="#000000" points="494.7747,-45.1987 487.9118,-37.127 488.2432,-47.7167 494.7747,-45.1987"/>
</g>
<!-- zs -->
<g id="node13" class="node">
<title>zs</title>
<polygon fill="none" stroke="#ff0000" points="818.1596,-1027.3984 856.4755,-1064.3008 779.8437,-1064.3008 818.1596,-1027.3984"/>
<text text-anchor="middle" x="818.1596" y="-1047.8" font-family="Times,serif" font-size="14.00" fill="#000000">zs</text>
</g>
<!-- kx&#45;&gt;zs -->
<g id="edge8" class="edge">
<title>kx-&gt;zs</title>
<path fill="none" stroke="#000000" d="M764.3476,-981.7036C776.5519,-994.361 792.1669,-1012.5824 803.5674,-1027.302"/>
<polygon fill="#000000" stroke="#000000" points="800.9248,-1029.611 809.7352,-1035.4955 806.5173,-1025.4011 800.9248,-1029.611"/>
</g>
<!-- br -->
<g id="node14" class="node">
<title>br</title>
<polygon fill="none" stroke="#ff0000" points="723.1596,-513.7984 761.4793,-550.7008 684.8398,-550.7008 723.1596,-513.7984"/>
<text text-anchor="middle" x="723.1596" y="-534.2" font-family="Times,serif" font-size="14.00" fill="#000000">br</text>
</g>
<!-- kx&#45;&gt;br -->
<g id="edge9" class="edge">
<title>kx-&gt;br</title>
<path fill="none" stroke="#000000" d="M717.3651,-949.6948C675.3422,-922.9066 602.1596,-866.0798 602.1596,-795.2 602.1596,-795.2 602.1596,-795.2 602.1596,-709.6 602.1596,-643.8944 662.3311,-585.7227 697.8101,-557.1337"/>
<polygon fill="#000000" stroke="#000000" points="700.1211,-559.7692 705.8232,-550.8397 695.7971,-554.2643 700.1211,-559.7692"/>
</g>
<!-- jd -->
<g id="node15" class="node">
<title>jd</title>
<polygon fill="none" stroke="#ff0000" points="779.1596,-770.5984 816.3544,-807.5008 741.9647,-807.5008 779.1596,-770.5984"/>
<text text-anchor="middle" x="779.1596" y="-791" font-family="Times,serif" font-size="14.00" fill="#000000">jd</text>
</g>
<!-- kx&#45;&gt;jd -->
<g id="edge10" class="edge">
<title>kx-&gt;jd</title>
<path fill="none" stroke="#000000" d="M749.6911,-948.0786C755.7825,-916.4773 768.2441,-851.828 774.8411,-817.6038"/>
<polygon fill="#000000" stroke="#000000" points="778.3053,-818.1233 776.7614,-807.6415 771.4318,-816.7983 778.3053,-818.1233"/>
</g>
<!-- bj -->
<g id="node16" class="node">
<title>bj</title>
<polygon fill="none" stroke="#ff0000" points="947.1596,-856.1984 984.3544,-893.1008 909.9647,-893.1008 947.1596,-856.1984"/>
<text text-anchor="middle" x="947.1596" y="-876.6" font-family="Times,serif" font-size="14.00" fill="#000000">bj</text>
</g>
<!-- kx&#45;&gt;bj -->
<g id="edge11" class="edge">
<title>kx-&gt;bj</title>
<path fill="none" stroke="#000000" d="M772.6696,-956.2793C802.8227,-944.6239 853.418,-924.6283 896.1596,-905.6 901.7488,-903.1117 907.6295,-900.3702 913.331,-897.645"/>
<polygon fill="#000000" stroke="#000000" points="915.1984,-900.6296 922.6737,-893.1216 912.1479,-894.3291 915.1984,-900.6296"/>
</g>
<!-- vg -->
<g id="node17" class="node">
<title>vg</title>
<polygon fill="none" stroke="#00ff00" points="1048.1146,-898.8 1014.2045,-898.8 1002.1278,-862.8 1060.1914,-862.8 1048.1146,-898.8"/>
<text text-anchor="middle" x="1031.1596" y="-876.6" font-family="Times,serif" font-size="14.00" fill="#000000">vg</text>
</g>
<!-- kx&#45;&gt;vg -->
<g id="edge12" class="edge">
<title>kx-&gt;vg</title>
<path fill="none" stroke="#000000" d="M770.5253,-963.1828C815.8576,-956.6008 915.5914,-939.2941 993.1596,-905.6 996.795,-904.0209 1000.4692,-902.1045 1004.0265,-900.0445"/>
<polygon fill="#000000" stroke="#000000" points="1005.9047,-902.9981 1012.5398,-894.7381 1002.2019,-897.0576 1005.9047,-902.9981"/>
</g>
<!-- jm&#45;&gt;kx -->
<g id="edge90" class="edge">
<title>jm-&gt;kx</title>
<path fill="none" stroke="#000000" d="M479.1131,-37.1019C470.3012,-65.0221 450.1596,-135.4613 450.1596,-196 450.1596,-795.2 450.1596,-795.2 450.1596,-795.2 450.1596,-847.388 451.2073,-870.8681 490.1596,-905.6 522.8738,-934.7698 650.3903,-954.3718 712.1986,-962.3596"/>
<polygon fill="#000000" stroke="#000000" points="711.8747,-965.8464 722.2349,-963.6288 712.7531,-958.9017 711.8747,-965.8464"/>
</g>
<!-- gj -->
<g id="node8" class="node">
<title>gj</title>
<polygon fill="none" stroke="#ff0000" points="209.1596,-513.7984 246.3544,-550.7008 171.9647,-550.7008 209.1596,-513.7984"/>
<text text-anchor="middle" x="209.1596" y="-534.2" font-family="Times,serif" font-size="14.00" fill="#000000">gj</text>
</g>
<!-- tx -->
<g id="node9" class="node">
<title>tx</title>
<polygon fill="none" stroke="#ff0000" points="189.1596,-428.1984 226.3544,-465.1008 151.9647,-465.1008 189.1596,-428.1984"/>
<text text-anchor="middle" x="189.1596" y="-448.6" font-family="Times,serif" font-size="14.00" fill="#000000">tx</text>
</g>
<!-- gj&#45;&gt;tx -->
<g id="edge5" class="edge">
<title>gj-&gt;tx</title>
<path fill="none" stroke="#000000" d="M204.4198,-518.114C201.3938,-505.1624 197.4693,-488.3655 194.3579,-475.049"/>
<polygon fill="#000000" stroke="#000000" points="197.7532,-474.197 192.0697,-465.2556 190.9368,-475.7896 197.7532,-474.197"/>
</g>
<!-- rj -->
<g id="node10" class="node">
<title>rj</title>
<polygon fill="none" stroke="#00ff00" points="280.928,-813.2 249.3911,-813.2 238.1596,-777.2 292.1596,-777.2 280.928,-813.2"/>
<text text-anchor="middle" x="265.1596" y="-791" font-family="Times,serif" font-size="14.00" fill="#000000">rj</text>
</g>
<!-- gj&#45;&gt;rj -->
<g id="edge6" class="edge">
<title>gj-&gt;rj</title>
<path fill="none" stroke="#000000" d="M222.975,-550.8586C234.4717,-562.1896 250.063,-580.0295 257.1596,-599.2 278.1249,-655.8351 273.8839,-728.0533 269.2973,-767.0918"/>
<polygon fill="#000000" stroke="#000000" points="265.8037,-766.8208 268.0151,-777.1822 272.7478,-767.7032 265.8037,-766.8208"/>
</g>
<!-- tx&#45;&gt;rj -->
<g id="edge48" class="edge">
<title>tx-&gt;rj</title>
<path fill="none" stroke="#000000" d="M182.096,-465.3725C175.782,-477.3495 166.9582,-496.0984 163.1596,-513.6 158.8048,-533.6639 156.7939,-635.1162 161.1596,-648.8 176.4253,-696.6494 213.6623,-742.2515 239.1727,-769.4863"/>
<polygon fill="#000000" stroke="#000000" points="236.9129,-772.1875 246.3521,-776.9991 241.9737,-767.3513 236.9129,-772.1875"/>
</g>
<!-- vz -->
<g id="node33" class="node">
<title>vz</title>
<polygon fill="none" stroke="#ff0000" points="189.1596,-342.5984 229.2673,-379.5008 149.0518,-379.5008 189.1596,-342.5984"/>
<text text-anchor="middle" x="189.1596" y="-363" font-family="Times,serif" font-size="14.00" fill="#000000">vz</text>
</g>
<!-- tx&#45;&gt;vz -->
<g id="edge49" class="edge">
<title>tx-&gt;vz</title>
<path fill="none" stroke="#000000" d="M189.1596,-428.0409C189.1596,-416.0671 189.1596,-401.7873 189.1596,-390.072"/>
<polygon fill="#000000" stroke="#000000" points="192.6597,-389.7845 189.1596,-379.7846 185.6597,-389.7846 192.6597,-389.7845"/>
</g>
<!-- rj&#45;&gt;qx -->
<g id="edge51" class="edge">
<title>rj-&gt;qx</title>
<path fill="none" stroke="#000000" d="M278.5141,-813.665C299.0811,-843.9749 336.1596,-906.8728 336.1596,-966.4 336.1596,-1052 336.1596,-1052 336.1596,-1052 336.1596,-1156.4889 336.1596,-1280.046 336.1596,-1339.1577"/>
<polygon fill="#000000" stroke="#000000" points="332.6597,-1339.426 336.1596,-1349.426 339.6597,-1339.426 332.6597,-1339.426"/>
</g>
<!-- rj&#45;&gt;gz -->
<g id="edge52" class="edge">
<title>rj-&gt;gz</title>
<path fill="none" stroke="#000000" d="M251.6252,-813.3925C232.8091,-839.9376 199.6517,-891.5863 187.1596,-941.6 164.6027,-1031.9089 212.0217,-1139.6635 237.0354,-1187.7268"/>
<polygon fill="#000000" stroke="#000000" points="234.0684,-1189.6018 241.856,-1196.7854 240.2479,-1186.3133 234.0684,-1189.6018"/>
</g>
<!-- rj&#45;&gt;hl -->
<g id="edge53" class="edge">
<title>rj-&gt;hl</title>
<path fill="none" stroke="#000000" d="M269.8472,-813.2832C278.141,-848.144 293.2571,-926.886 279.1596,-991.2 276.4353,-1003.6282 270.9199,-1016.5466 265.499,-1027.2627"/>
<polygon fill="#000000" stroke="#000000" points="262.2403,-1025.9359 260.63,-1036.4076 268.4191,-1029.2257 262.2403,-1025.9359"/>
</g>
<!-- cg -->
<g id="node40" class="node">
<title>cg</title>
<polygon fill="none" stroke="#ff0000" points="382.1596,-684.9984 422.2673,-721.9008 342.0518,-721.9008 382.1596,-684.9984"/>
<text text-anchor="middle" x="382.1596" y="-705.4" font-family="Times,serif" font-size="14.00" fill="#000000">cg</text>
</g>
<!-- rj&#45;&gt;cg -->
<g id="edge54" class="edge">
<title>rj-&gt;cg</title>
<path fill="none" stroke="#000000" d="M284.3363,-777.0464C302.7717,-762.4673 330.616,-742.1004 351.9805,-727.5701"/>
<polygon fill="#000000" stroke="#000000" points="354.0422,-730.4018 360.4006,-721.927 350.1451,-724.5869 354.0422,-730.4018"/>
</g>
<!-- qf -->
<g id="node46" class="node">
<title>qf</title>
<polygon fill="none" stroke="#ff0000" points="38.1596,-684.9984 76.4793,-721.9008 -.1602,-721.9008 38.1596,-684.9984"/>
<text text-anchor="middle" x="38.1596" y="-705.4" font-family="Times,serif" font-size="14.00" fill="#000000">qf</text>
</g>
<!-- rj&#45;&gt;qf -->
<g id="edge55" class="edge">
<title>rj-&gt;qf</title>
<path fill="none" stroke="#000000" d="M241.3566,-787.8541C207.3956,-777.1657 143.2666,-756.2113 90.1596,-734.4 84.2094,-731.9562 77.967,-729.1751 71.9547,-726.3804"/>
<polygon fill="#000000" stroke="#000000" points="73.3065,-723.1479 62.7714,-722.0241 70.3063,-729.4724 73.3065,-723.1479"/>
</g>
<!-- sb -->
<g id="node47" class="node">
<title>sb</title>
<polygon fill="none" stroke="#ff0000" points="209.1596,-599.3984 248.6433,-636.3008 169.6758,-636.3008 209.1596,-599.3984"/>
<text text-anchor="middle" x="209.1596" y="-619.8" font-family="Times,serif" font-size="14.00" fill="#000000">sb</text>
</g>
<!-- rj&#45;&gt;sb -->
<g id="edge56" class="edge">
<title>rj-&gt;sb</title>
<path fill="none" stroke="#000000" d="M259.1666,-776.8786C248.7849,-745.1404 227.4994,-680.0676 216.3431,-645.961"/>
<polygon fill="#000000" stroke="#000000" points="219.6648,-644.8579 213.2292,-636.4415 213.0117,-647.0342 219.6648,-644.8579"/>
</g>
<!-- gs -->
<g id="node48" class="node">
<title>gs</title>
<polygon fill="none" stroke="#00ff00" points="712.5106,-727.6 679.8085,-727.6 668.162,-691.6 724.1571,-691.6 712.5106,-727.6"/>
<text text-anchor="middle" x="696.1596" y="-705.4" font-family="Times,serif" font-size="14.00" fill="#000000">gs</text>
</g>
<!-- rj&#45;&gt;gs -->
<g id="edge57" class="edge">
<title>rj-&gt;gs</title>
<path fill="none" stroke="#000000" d="M288.0277,-790.6582C360.0518,-776.3536 582.3041,-732.2126 664.8608,-715.8162"/>
<polygon fill="#000000" stroke="#000000" points="665.7607,-719.2059 674.8873,-713.8248 664.3971,-712.34 665.7607,-719.2059"/>
</g>
<!-- lc -->
<g id="node11" class="node">
<title>lc</title>
<polygon fill="none" stroke="#ff0000" points="1532.1596,-770.5984 1568.1871,-807.5008 1496.132,-807.5008 1532.1596,-770.5984"/>
<text text-anchor="middle" x="1532.1596" y="-791" font-family="Times,serif" font-size="14.00" fill="#000000">lc</text>
</g>
<!-- hr -->
<g id="node12" class="node">
<title>hr</title>
<polygon fill="none" stroke="#ff0000" points="1693.1596,-684.9984 1731.4793,-721.9008 1654.8398,-721.9008 1693.1596,-684.9984"/>
<text text-anchor="middle" x="1693.1596" y="-705.4" font-family="Times,serif" font-size="14.00" fill="#000000">hr</text>
</g>
<!-- lc&#45;&gt;hr -->
<g id="edge7" class="edge">
<title>lc-&gt;hr</title>
<path fill="none" stroke="#000000" d="M1548.1855,-786.6794C1574.3582,-772.764 1626.772,-744.8967 1660.8856,-726.7593"/>
<polygon fill="#000000" stroke="#000000" points="1662.7986,-729.7062 1669.9851,-721.9213 1659.5124,-723.5255 1662.7986,-729.7062"/>
</g>
<!-- pm -->
<g id="node45" class="node">
<title>pm</title>
<polygon fill="none" stroke="#ff0000" points="1722.1596,-599.3984 1768.6693,-636.3008 1675.6498,-636.3008 1722.1596,-599.3984"/>
<text text-anchor="middle" x="1722.1596" y="-619.8" font-family="Times,serif" font-size="14.00" fill="#000000">pm</text>
</g>
<!-- hr&#45;&gt;pm -->
<g id="edge45" class="edge">
<title>hr-&gt;pm</title>
<path fill="none" stroke="#000000" d="M1699.4521,-691.0261C1703.9124,-677.8605 1709.9176,-660.1348 1714.6322,-646.2188"/>
<polygon fill="#000000" stroke="#000000" points="1718.045,-647.0527 1717.9388,-636.4584 1711.4151,-644.8066 1718.045,-647.0527"/>
</g>
<!-- zs&#45;&gt;kx -->
<g id="edge81" class="edge">
<title>zs-&gt;kx</title>
<path fill="none" stroke="#000000" d="M804.0155,-1040.8093C791.7575,-1028.6145 774.4802,-1008.6843 761.8563,-992.5183"/>
<polygon fill="#000000" stroke="#000000" points="764.5714,-990.3066 755.7301,-984.4686 759.001,-994.5459 764.5714,-990.3066"/>
</g>
<!-- zs&#45;&gt;bj -->
<g id="edge82" class="edge">
<title>zs-&gt;bj</title>
<path fill="none" stroke="#000000" d="M828.9361,-1037.698C851.7122,-1007.4713 904.8258,-936.9824 931.4125,-901.6984"/>
<polygon fill="#000000" stroke="#000000" points="934.3431,-903.6252 937.5657,-893.5323 928.7525,-899.4126 934.3431,-903.6252"/>
</g>
<!-- jz -->
<g id="node29" class="node">
<title>jz</title>
<polygon fill="none" stroke="#ff0000" points="770.1596,-428.1984 806.1871,-465.1008 734.132,-465.1008 770.1596,-428.1984"/>
<text text-anchor="middle" x="770.1596" y="-448.6" font-family="Times,serif" font-size="14.00" fill="#000000">jz</text>
</g>
<!-- br&#45;&gt;jz -->
<g id="edge34" class="edge">
<title>br-&gt;jz</title>
<path fill="none" stroke="#000000" d="M731.9999,-522.2993C739.46,-508.7124 750.2018,-489.1486 758.3891,-474.2373"/>
<polygon fill="#000000" stroke="#000000" points="761.5953,-475.67 763.3403,-465.2198 755.4594,-472.3009 761.5953,-475.67"/>
</g>
<!-- lx -->
<g id="node53" class="node">
<title>lx</title>
<polygon fill="none" stroke="#ff0000" points="779.1596,-684.9984 816.3544,-721.9008 741.9647,-721.9008 779.1596,-684.9984"/>
<text text-anchor="middle" x="779.1596" y="-705.4" font-family="Times,serif" font-size="14.00" fill="#000000">lx</text>
</g>
<!-- jd&#45;&gt;lx -->
<g id="edge78" class="edge">
<title>jd-&gt;lx</title>
<path fill="none" stroke="#000000" d="M779.1596,-770.4409C779.1596,-758.4671 779.1596,-744.1873 779.1596,-732.472"/>
<polygon fill="#000000" stroke="#000000" points="782.6597,-732.1845 779.1596,-722.1846 775.6597,-732.1846 782.6597,-732.1845"/>
</g>
<!-- bj&#45;&gt;jd -->
<g id="edge61" class="edge">
<title>bj-&gt;jd</title>
<path fill="none" stroke="#000000" d="M930.7451,-872.4365C903.46,-858.5341 848.2463,-830.4014 812.5239,-812.1999"/>
<polygon fill="#000000" stroke="#000000" points="813.947,-808.997 803.448,-807.5755 810.7691,-815.234 813.947,-808.997"/>
</g>
<!-- rg -->
<g id="node19" class="node">
<title>rg</title>
<polygon fill="none" stroke="#00ff00" points="962.928,-642 931.3911,-642 920.1596,-606 974.1596,-606 962.928,-642"/>
<text text-anchor="middle" x="947.1596" y="-619.8" font-family="Times,serif" font-size="14.00" fill="#000000">rg</text>
</g>
<!-- vg&#45;&gt;rg -->
<g id="edge42" class="edge">
<title>vg-&gt;rg</title>
<path fill="none" stroke="#000000" d="M1013.8992,-862.6052C1003.7788,-851.126 991.4029,-835.5701 983.1596,-820 954.3181,-765.524 948.1847,-691.9401 947.1212,-652.2306"/>
<polygon fill="#000000" stroke="#000000" points="950.6202,-652.1397 946.9429,-642.2035 943.6213,-652.2642 950.6202,-652.1397"/>
</g>
<!-- kd -->
<g id="node18" class="node">
<title>kd</title>
<polygon fill="none" stroke="#00ff00" points="1124.1146,-727.6 1090.2045,-727.6 1078.1278,-691.6 1136.1914,-691.6 1124.1146,-727.6"/>
<text text-anchor="middle" x="1107.1596" y="-705.4" font-family="Times,serif" font-size="14.00" fill="#000000">kd</text>
</g>
<!-- kd&#45;&gt;rg -->
<g id="edge13" class="edge">
<title>kd-&gt;rg</title>
<path fill="none" stroke="#000000" d="M1080.4132,-691.595C1076.6755,-689.2409 1072.8507,-686.9148 1069.1596,-684.8 1037.7991,-666.8326 1000.4353,-648.6637 975.3929,-636.9286"/>
<polygon fill="#000000" stroke="#000000" points="976.6576,-633.6568 966.1145,-632.611 973.7042,-640.0033 976.6576,-633.6568"/>
</g>
<!-- rx -->
<g id="node55" class="node">
<title>rx</title>
<ellipse fill="none" stroke="#000000" cx="947.1596" cy="-538.4" rx="27" ry="18"/>
<text text-anchor="middle" x="947.1596" y="-534.2" font-family="Times,serif" font-size="14.00" fill="#000000">rx</text>
</g>
<!-- rg&#45;&gt;rx -->
<g id="edge83" class="edge">
<title>rg-&gt;rx</title>
<path fill="none" stroke="#000000" d="M947.1596,-605.8464C947.1596,-594.4975 947.1596,-579.6415 947.1596,-566.7615"/>
<polygon fill="#000000" stroke="#000000" points="950.6597,-566.5274 947.1596,-556.5274 943.6597,-566.5274 950.6597,-566.5274"/>
</g>
<!-- pf&#45;&gt;tr -->
<g id="edge93" class="edge">
<title>pf-&gt;tr</title>
<path fill="none" stroke="#000000" d="M1659.6334,-868.1906C1678.7786,-857.6024 1704.4734,-840.8684 1721.1596,-820 1784.4528,-740.8426 1782.3164,-700.4652 1778.1596,-599.2 1777.6394,-586.5294 1776.5121,-572.4109 1775.4593,-560.9706"/>
<polygon fill="#000000" stroke="#000000" points="1778.9376,-560.5759 1774.495,-550.9575 1771.9698,-561.247 1778.9376,-560.5759"/>
</g>
<!-- pf&#45;&gt;lc -->
<g id="edge94" class="edge">
<title>pf-&gt;lc</title>
<path fill="none" stroke="#000000" d="M1612.528,-862.6464C1595.5417,-848.3913 1571.9619,-828.6027 1554.737,-814.1473"/>
<polygon fill="#000000" stroke="#000000" points="1556.7583,-811.2745 1546.8483,-807.527 1552.2584,-816.6365 1556.7583,-811.2745"/>
</g>
<!-- pf&#45;&gt;hr -->
<g id="edge95" class="edge">
<title>pf-&gt;hr</title>
<path fill="none" stroke="#000000" d="M1640.4736,-862.4786C1651.4114,-830.7404 1673.8372,-765.6676 1685.5912,-731.561"/>
<polygon fill="#000000" stroke="#000000" points="1688.9226,-732.6363 1688.8719,-722.0415 1682.3046,-730.3555 1688.9226,-732.6363"/>
</g>
<!-- zf -->
<g id="node28" class="node">
<title>zf</title>
<polygon fill="none" stroke="#00ff00" points="1034.928,-813.2 1003.3911,-813.2 992.1596,-777.2 1046.1596,-777.2 1034.928,-813.2"/>
<text text-anchor="middle" x="1019.1596" y="-791" font-family="Times,serif" font-size="14.00" fill="#000000">zf</text>
</g>
<!-- pf&#45;&gt;zf -->
<g id="edge96" class="edge">
<title>pf-&gt;zf</title>
<path fill="none" stroke="#000000" d="M1611.542,-877.6519C1517.5759,-864.5731 1157.8964,-814.5104 1049.9592,-799.4869"/>
<polygon fill="#000000" stroke="#000000" points="1050.1371,-795.978 1039.7501,-798.0659 1049.1721,-802.9112 1050.1371,-795.978"/>
</g>
<!-- sr -->
<g id="node39" class="node">
<title>sr</title>
<polygon fill="none" stroke="#ff0000" points="1595.1596,-1027.3984 1631.1871,-1064.3008 1559.132,-1064.3008 1595.1596,-1027.3984"/>
<text text-anchor="middle" x="1595.1596" y="-1047.8" font-family="Times,serif" font-size="14.00" fill="#000000">sr</text>
</g>
<!-- pf&#45;&gt;sr -->
<g id="edge97" class="edge">
<title>pf-&gt;sr</title>
<path fill="none" stroke="#000000" d="M1634.388,-898.8785C1630.4305,-929.2313 1616.6888,-990.5554 1606.1848,-1025.6891"/>
<polygon fill="#000000" stroke="#000000" points="1602.832,-1024.6838 1603.1813,-1035.2729 1609.5117,-1026.7772 1602.832,-1024.6838"/>
</g>
<!-- xq -->
<g id="node42" class="node">
<title>xq</title>
<polygon fill="none" stroke="#ff0000" points="1729.1596,-256.9984 1770.4337,-293.9008 1687.8854,-293.9008 1729.1596,-256.9984"/>
<text text-anchor="middle" x="1729.1596" y="-277.4" font-family="Times,serif" font-size="14.00" fill="#000000">xq</text>
</g>
<!-- pf&#45;&gt;xq -->
<g id="edge98" class="edge">
<title>pf-&gt;xq</title>
<path fill="none" stroke="#000000" d="M1633.3291,-862.7468C1631.4748,-820.8293 1627.1596,-713.6458 1627.1596,-624 1627.1596,-624 1627.1596,-624 1627.1596,-452.8 1627.1596,-390.5513 1677.543,-331.2366 1707.489,-301.4799"/>
<polygon fill="#000000" stroke="#000000" points="1710.2274,-303.7003 1714.9769,-294.2297 1705.358,-298.6714 1710.2274,-303.7003"/>
</g>
<!-- pf&#45;&gt;pm -->
<g id="edge99" class="edge">
<title>pf-&gt;pm</title>
<path fill="none" stroke="#000000" d="M1653.3216,-862.6747C1678.9208,-836.9959 1723.0395,-787.2372 1740.1596,-734.4 1749.8146,-704.6017 1740.1573,-668.5263 1731.6909,-645.9131"/>
<polygon fill="#000000" stroke="#000000" points="1734.9102,-644.5367 1727.9584,-636.5415 1728.407,-647.1269 1734.9102,-644.5367"/>
</g>
<!-- ml&#45;&gt;pf -->
<g id="edge59" class="edge">
<title>ml-&gt;pf</title>
<path fill="none" stroke="#000000" d="M1801.2071,-379.9207C1813.1276,-391.4198 1829.8859,-409.359 1840.1596,-428 1864.8784,-472.8511 1873.1596,-487.1882 1873.1596,-538.4 1873.1596,-709.6 1873.1596,-709.6 1873.1596,-709.6 1873.1596,-766.9956 1850.6965,-783.7962 1806.1596,-820 1765.0021,-853.4567 1704.0865,-869.1594 1666.8764,-876.0189"/>
<polygon fill="#000000" stroke="#000000" points="1665.8478,-872.6449 1656.5919,-877.8003 1667.0426,-879.5422 1665.8478,-872.6449"/>
</g>
<!-- ml&#45;&gt;xq -->
<g id="edge60" class="edge">
<title>ml-&gt;xq</title>
<path fill="none" stroke="#000000" d="M1776.5215,-351.4996C1767.2593,-337.8299 1753.7519,-317.8949 1743.53,-302.8088"/>
<polygon fill="#000000" stroke="#000000" points="1746.1642,-300.4569 1737.6573,-294.1415 1740.3692,-304.3834 1746.1642,-300.4569"/>
</g>
<!-- tg -->
<g id="node22" class="node">
<title>tg</title>
<polygon fill="none" stroke="#ff0000" points="1163.1596,-941.7984 1200.3544,-978.7008 1125.9647,-978.7008 1163.1596,-941.7984"/>
<text text-anchor="middle" x="1163.1596" y="-962.2" font-family="Times,serif" font-size="14.00" fill="#000000">tg</text>
</g>
<!-- tq -->
<g id="node23" class="node">
<title>tq</title>
<polygon fill="none" stroke="#00ff00" points="1252.928,-813.2 1221.3911,-813.2 1210.1596,-777.2 1264.1596,-777.2 1252.928,-813.2"/>
<text text-anchor="middle" x="1237.1596" y="-791" font-family="Times,serif" font-size="14.00" fill="#000000">tq</text>
</g>
<!-- tg&#45;&gt;tq -->
<g id="edge16" class="edge">
<title>tg-&gt;tq</title>
<path fill="none" stroke="#000000" d="M1170.6623,-949.0423C1183.5259,-919.2822 1209.8877,-858.2939 1225.2744,-822.6964"/>
<polygon fill="#000000" stroke="#000000" points="1228.548,-823.9443 1229.3029,-813.3764 1222.1225,-821.1669 1228.548,-823.9443"/>
</g>
<!-- cp -->
<g id="node24" class="node">
<title>cp</title>
<polygon fill="none" stroke="#ff0000" points="1122.1596,-856.1984 1162.2673,-893.1008 1082.0518,-893.1008 1122.1596,-856.1984"/>
<text text-anchor="middle" x="1122.1596" y="-876.6" font-family="Times,serif" font-size="14.00" fill="#000000">cp</text>
</g>
<!-- tg&#45;&gt;cp -->
<g id="edge17" class="edge">
<title>tg-&gt;cp</title>
<path fill="none" stroke="#000000" d="M1155.0593,-949.4882C1148.6124,-936.0283 1139.5447,-917.0968 1132.5612,-902.5166"/>
<polygon fill="#000000" stroke="#000000" points="1135.5936,-900.7453 1128.1172,-893.2384 1129.2804,-903.7692 1135.5936,-900.7453"/>
</g>
<!-- tq&#45;&gt;kd -->
<g id="edge66" class="edge">
<title>tq-&gt;kd</title>
<path fill="none" stroke="#000000" d="M1210.2235,-777.4636C1188.1301,-762.916 1156.9781,-742.4036 1134.7171,-727.7456"/>
<polygon fill="#000000" stroke="#000000" points="1136.346,-724.6276 1126.0692,-722.0513 1132.4964,-730.474 1136.346,-724.6276"/>
</g>
<!-- tp -->
<g id="node25" class="node">
<title>tp</title>
<polygon fill="none" stroke="#ff0000" points="1023.1596,-684.9984 1060.3544,-721.9008 985.9647,-721.9008 1023.1596,-684.9984"/>
<text text-anchor="middle" x="1023.1596" y="-705.4" font-family="Times,serif" font-size="14.00" fill="#000000">tp</text>
</g>
<!-- tq&#45;&gt;tp -->
<g id="edge67" class="edge">
<title>tq-&gt;tp</title>
<path fill="none" stroke="#000000" d="M1213.354,-787.8114C1180.3987,-777.3081 1119.2707,-756.8294 1069.1596,-734.4 1064.0874,-732.1297 1058.8091,-729.5262 1053.7136,-726.8787"/>
<polygon fill="#000000" stroke="#000000" points="1055.2927,-723.7542 1044.8233,-722.1285 1051.9939,-729.9282 1055.2927,-723.7542"/>
</g>
<!-- dt -->
<g id="node31" class="node">
<title>dt</title>
<polygon fill="none" stroke="#ff0000" points="1200.1596,-1027.3984 1237.3544,-1064.3008 1162.9647,-1064.3008 1200.1596,-1027.3984"/>
<text text-anchor="middle" x="1200.1596" y="-1047.8" font-family="Times,serif" font-size="14.00" fill="#000000">dt</text>
</g>
<!-- tq&#45;&gt;dt -->
<g id="edge68" class="edge">
<title>tq-&gt;dt</title>
<path fill="none" stroke="#000000" d="M1239.7771,-813.3091C1238.7162,-847.891 1227.683,-925.7204 1218.1596,-991.2 1216.4487,-1002.9631 1214.5226,-1016.0016 1212.151,-1026.9781"/>
<polygon fill="#000000" stroke="#000000" points="1208.7347,-1026.2135 1209.7331,-1036.7612 1215.5302,-1027.8931 1208.7347,-1026.2135"/>
</g>
<!-- rb -->
<g id="node49" class="node">
<title>rb</title>
<polygon fill="none" stroke="#ff0000" points="1326.1596,-256.9984 1364.4793,-293.9008 1287.8398,-293.9008 1326.1596,-256.9984"/>
<text text-anchor="middle" x="1326.1596" y="-277.4" font-family="Times,serif" font-size="14.00" fill="#000000">rb</text>
</g>
<!-- tq&#45;&gt;rb -->
<g id="edge69" class="edge">
<title>tq-&gt;rb</title>
<path fill="none" stroke="#000000" d="M1262.2092,-777.089C1276.2258,-765.9854 1293.2258,-750.7854 1305.1596,-734.4 1336.7638,-691.0066 1354.1596,-677.6825 1354.1596,-624 1354.1596,-624 1354.1596,-624 1354.1596,-452.8 1354.1596,-398.6833 1340.3648,-336.191 1332.1405,-303.7426"/>
<polygon fill="#000000" stroke="#000000" points="1335.497,-302.7428 1329.5929,-293.9456 1328.7223,-304.5046 1335.497,-302.7428"/>
</g>
<!-- zt -->
<g id="node51" class="node">
<title>zt</title>
<polygon fill="none" stroke="#ff0000" points="1252.1596,-428.1984 1288.1871,-465.1008 1216.132,-465.1008 1252.1596,-428.1984"/>
<text text-anchor="middle" x="1252.1596" y="-448.6" font-family="Times,serif" font-size="14.00" fill="#000000">zt</text>
</g>
<!-- tq&#45;&gt;zt -->
<g id="edge70" class="edge">
<title>tq-&gt;zt</title>
<path fill="none" stroke="#000000" d="M1240.2771,-777.098C1247.6023,-732.4064 1264.8758,-613.2282 1259.1596,-513.6 1258.4308,-500.8988 1256.8525,-486.7783 1255.3787,-475.3446"/>
<polygon fill="#000000" stroke="#000000" points="1258.8346,-474.7819 1254.0288,-465.3397 1251.8974,-475.7179 1258.8346,-474.7819"/>
</g>
<!-- cp&#45;&gt;tq -->
<g id="edge18" class="edge">
<title>cp-&gt;tq</title>
<path fill="none" stroke="#000000" d="M1137.1938,-869.6093C1155.981,-855.6251 1188.4337,-831.469 1211.2555,-814.4816"/>
<polygon fill="#000000" stroke="#000000" points="1213.5502,-817.1368 1219.4821,-808.3582 1209.3705,-811.5216 1213.5502,-817.1368"/>
</g>
<!-- cp&#45;&gt;tp -->
<g id="edge19" class="edge">
<title>cp-&gt;tp</title>
<path fill="none" stroke="#000000" d="M1112.8459,-864.6939C1094.8948,-833.6513 1055.5109,-765.545 1035.4413,-730.8388"/>
<polygon fill="#000000" stroke="#000000" points="1038.3626,-728.8988 1030.3267,-721.9941 1032.3028,-732.403 1038.3626,-728.8988"/>
</g>
<!-- dm -->
<g id="node52" class="node">
<title>dm</title>
<polygon fill="none" stroke="#ff0000" points="1165.1596,-599.3984 1211.6693,-636.3008 1118.6498,-636.3008 1165.1596,-599.3984"/>
<text text-anchor="middle" x="1165.1596" y="-619.8" font-family="Times,serif" font-size="14.00" fill="#000000">dm</text>
</g>
<!-- tp&#45;&gt;dm -->
<g id="edge71" class="edge">
<title>tp-&gt;dm</title>
<path fill="none" stroke="#000000" d="M1038.6264,-700.2763C1061.9474,-686.218 1106.5202,-659.3488 1136.0476,-641.5492"/>
<polygon fill="#000000" stroke="#000000" points="1137.9307,-644.5008 1144.688,-636.3406 1134.3168,-638.5058 1137.9307,-644.5008"/>
</g>
<!-- sx -->
<g id="node26" class="node">
<title>sx</title>
<polygon fill="none" stroke="#ff0000" points="1589.1596,-85.7984 1628.6433,-122.7008 1549.6758,-122.7008 1589.1596,-85.7984"/>
<text text-anchor="middle" x="1589.1596" y="-106.2" font-family="Times,serif" font-size="14.00" fill="#000000">sx</text>
</g>
<!-- sx&#45;&gt;pf -->
<g id="edge20" class="edge">
<title>sx-&gt;pf</title>
<path fill="none" stroke="#000000" d="M1589.1596,-122.859C1589.1596,-151.1009 1589.1596,-222.1556 1589.1596,-281.6 1589.1596,-624 1589.1596,-624 1589.1596,-624 1589.1596,-708.3707 1613.0176,-806.0251 1625.99,-852.8869"/>
<polygon fill="#000000" stroke="#000000" points="1622.6514,-853.9436 1628.7315,-862.6201 1629.3892,-852.0457 1622.6514,-853.9436"/>
</g>
<!-- qc -->
<g id="node27" class="node">
<title>qc</title>
<polygon fill="none" stroke="#ff0000" points="1525.1596,-.1984 1565.2673,-37.1008 1485.0518,-37.1008 1525.1596,-.1984"/>
<text text-anchor="middle" x="1525.1596" y="-20.6" font-family="Times,serif" font-size="14.00" fill="#000000">qc</text>
</g>
<!-- sx&#45;&gt;qc -->
<g id="edge21" class="edge">
<title>sx-&gt;qc</title>
<path fill="none" stroke="#000000" d="M1578.3028,-95.8791C1567.8914,-81.9539 1552.0752,-60.7997 1540.4026,-45.1876"/>
<polygon fill="#000000" stroke="#000000" points="1543.196,-43.0787 1534.4048,-37.1655 1537.5897,-47.2704 1543.196,-43.0787"/>
</g>
<!-- qc&#45;&gt;pf -->
<g id="edge33" class="edge">
<title>qc-&gt;pf</title>
<path fill="none" stroke="#000000" d="M1517.9405,-37.211C1502.6026,-64.7896 1468.1596,-133.6606 1468.1596,-196 1468.1596,-709.6 1468.1596,-709.6 1468.1596,-709.6 1468.1596,-759.388 1456.0657,-781.1154 1487.1596,-820 1515.4515,-855.3807 1567.8393,-870.3831 1601.8289,-876.5961"/>
<polygon fill="#000000" stroke="#000000" points="1601.299,-880.056 1611.7396,-878.2549 1602.4546,-873.152 1601.299,-880.056"/>
</g>
<!-- zf&#45;&gt;rg -->
<g id="edge22" class="edge">
<title>zf-&gt;rg</title>
<path fill="none" stroke="#000000" d="M1004.1658,-777.0343C995.2383,-765.4429 984.2948,-749.758 977.1596,-734.4 964.8058,-707.8096 956.7239,-675.1755 952.0951,-652.3096"/>
<polygon fill="#000000" stroke="#000000" points="955.484,-651.3992 950.1524,-642.2436 948.6108,-652.7257 955.484,-651.3992"/>
</g>
<!-- jz&#45;&gt;kx -->
<g id="edge23" class="edge">
<title>jz-&gt;kx</title>
<path fill="none" stroke="#000000" d="M779.8338,-465.3086C799.8923,-492.5363 844.1596,-559.8877 844.1596,-624 844.1596,-795.2 844.1596,-795.2 844.1596,-795.2 844.1596,-853.2921 801.1341,-909.5637 772.1003,-940.9229"/>
<polygon fill="#000000" stroke="#000000" points="769.4012,-938.6824 765.0549,-948.3447 774.4781,-943.5017 769.4012,-938.6824"/>
</g>
<!-- pt -->
<g id="node30" class="node">
<title>pt</title>
<polygon fill="none" stroke="#ff0000" points="770.1596,-342.5984 807.3544,-379.5008 732.9647,-379.5008 770.1596,-342.5984"/>
<text text-anchor="middle" x="770.1596" y="-363" font-family="Times,serif" font-size="14.00" fill="#000000">pt</text>
</g>
<!-- jz&#45;&gt;pt -->
<g id="edge24" class="edge">
<title>jz-&gt;pt</title>
<path fill="none" stroke="#000000" d="M770.1596,-428.0409C770.1596,-416.0671 770.1596,-401.7873 770.1596,-390.072"/>
<polygon fill="#000000" stroke="#000000" points="773.6597,-389.7845 770.1596,-379.7846 766.6597,-389.7846 773.6597,-389.7845"/>
</g>
<!-- pt&#45;&gt;kx -->
<g id="edge84" class="edge">
<title>pt-&gt;kx</title>
<path fill="none" stroke="#000000" d="M785.7327,-379.5325C816.5072,-405.4139 882.1596,-468.7856 882.1596,-538.4 882.1596,-795.2 882.1596,-795.2 882.1596,-795.2 882.1596,-849.4371 864.7767,-863.847 830.1596,-905.6 817.0714,-921.3861 799.0003,-935.1613 782.9715,-945.5897"/>
<polygon fill="#000000" stroke="#000000" points="780.9227,-942.7436 774.3215,-951.0305 784.6497,-948.6689 780.9227,-942.7436"/>
</g>
<!-- cb -->
<g id="node56" class="node">
<title>cb</title>
<polygon fill="none" stroke="#ff0000" points="594.1596,-256.9984 634.2673,-293.9008 554.0518,-293.9008 594.1596,-256.9984"/>
<text text-anchor="middle" x="594.1596" y="-277.4" font-family="Times,serif" font-size="14.00" fill="#000000">cb</text>
</g>
<!-- pt&#45;&gt;cb -->
<g id="edge85" class="edge">
<title>pt-&gt;cb</title>
<path fill="none" stroke="#000000" d="M753.2839,-358.9923C724.7301,-345.1048 666.3362,-316.7041 628.7836,-298.4399"/>
<polygon fill="#000000" stroke="#000000" points="630.2398,-295.2562 619.7162,-294.0298 627.1781,-301.5511 630.2398,-295.2562"/>
</g>
<!-- dt&#45;&gt;tg -->
<g id="edge25" class="edge">
<title>dt-&gt;tg</title>
<path fill="none" stroke="#000000" d="M1192.6721,-1034.6776C1186.8387,-1021.182 1178.7086,-1002.3729 1172.4583,-987.9129"/>
<polygon fill="#000000" stroke="#000000" points="1175.6633,-986.5062 1168.4829,-978.7156 1169.2379,-989.2836 1175.6633,-986.5062"/>
</g>
<!-- dt&#45;&gt;tq -->
<g id="edge26" class="edge">
<title>dt-&gt;tq</title>
<path fill="none" stroke="#000000" d="M1195.2957,-1032.0135C1195.9086,-1020.1537 1198.1784,-1004.8217 1200.1596,-991.2 1208.8645,-931.3476 1218.831,-861.1767 1227.1348,-823.1477"/>
<polygon fill="#000000" stroke="#000000" points="1230.5665,-823.8429 1229.4304,-813.3091 1223.7496,-822.2523 1230.5665,-823.8429"/>
</g>
<!-- xv -->
<g id="node32" class="node">
<title>xv</title>
<polygon fill="none" stroke="#ff0000" points="252.1596,-256.9984 293.4337,-293.9008 210.8854,-293.9008 252.1596,-256.9984"/>
<text text-anchor="middle" x="252.1596" y="-277.4" font-family="Times,serif" font-size="14.00" fill="#000000">xv</text>
</g>
<!-- xv&#45;&gt;rj -->
<g id="edge27" class="edge">
<title>xv-&gt;rj</title>
<path fill="none" stroke="#000000" d="M260.0119,-293.9267C276.6952,-321.3371 314.1596,-389.8936 314.1596,-452.8 314.1596,-624 314.1596,-624 314.1596,-624 314.1596,-676.3924 292.6864,-734.4431 278.17,-767.7009"/>
<polygon fill="#000000" stroke="#000000" points="274.8123,-766.6354 273.9198,-777.1926 281.201,-769.4962 274.8123,-766.6354"/>
</g>
<!-- vz&#45;&gt;rj -->
<g id="edge28" class="edge">
<title>vz-&gt;rj</title>
<path fill="none" stroke="#000000" d="M177.6961,-379.8719C154.4947,-406.8864 104.1596,-473.0275 104.1596,-538.4 104.1596,-624 104.1596,-624 104.1596,-624 104.1596,-697.4411 183.7555,-752.2443 231.0156,-778.311"/>
<polygon fill="#000000" stroke="#000000" points="229.5375,-781.49 240.0033,-783.1382 232.8496,-775.3231 229.5375,-781.49"/>
</g>
<!-- vz&#45;&gt;xv -->
<g id="edge29" class="edge">
<title>vz-&gt;xv</title>
<path fill="none" stroke="#000000" d="M200.1333,-352.2896C210.271,-338.5153 225.4325,-317.9148 236.7768,-302.501"/>
<polygon fill="#000000" stroke="#000000" points="239.8396,-304.2442 242.9482,-294.1157 234.2018,-300.095 239.8396,-304.2442"/>
</g>
<!-- vn -->
<g id="node34" class="node">
<title>vn</title>
<polygon fill="none" stroke="#ff0000" points="1336.1596,-85.7984 1377.4337,-122.7008 1294.8854,-122.7008 1336.1596,-85.7984"/>
<text text-anchor="middle" x="1336.1596" y="-106.2" font-family="Times,serif" font-size="14.00" fill="#000000">vn</text>
</g>
<!-- vn&#45;&gt;tq -->
<g id="edge30" class="edge">
<title>vn-&gt;tq</title>
<path fill="none" stroke="#000000" d="M1300.389,-117.7718C1232.1615,-134.1506 1090.1596,-180.3962 1090.1596,-281.6 1090.1596,-538.4 1090.1596,-538.4 1090.1596,-538.4 1090.1596,-588.188 1086.2606,-604.5904 1109.1596,-648.8 1119.5666,-668.8921 1129.901,-668.0914 1145.1596,-684.8 1170.7825,-712.858 1198.4792,-746.6045 1216.7138,-769.3411"/>
<polygon fill="#000000" stroke="#000000" points="1214.0065,-771.5597 1222.9824,-777.1886 1219.4758,-767.1909 1214.0065,-771.5597"/>
</g>
<!-- vv -->
<g id="node35" class="node">
<title>vv</title>
<polygon fill="none" stroke="#ff0000" points="1357.1596,-.1984 1398.4337,-37.1008 1315.8854,-37.1008 1357.1596,-.1984"/>
<text text-anchor="middle" x="1357.1596" y="-20.6" font-family="Times,serif" font-size="14.00" fill="#000000">vv</text>
</g>
<!-- vn&#45;&gt;vv -->
<g id="edge31" class="edge">
<title>vn-&gt;vv</title>
<path fill="none" stroke="#000000" d="M1341.1363,-90.114C1344.3136,-77.1624 1348.4344,-60.3655 1351.7013,-47.049"/>
<polygon fill="#000000" stroke="#000000" points="1355.1204,-47.8015 1354.1039,-37.2556 1348.322,-46.1336 1355.1204,-47.8015"/>
</g>
<!-- vv&#45;&gt;tq -->
<g id="edge72" class="edge">
<title>vv-&gt;tq</title>
<path fill="none" stroke="#000000" d="M1366.703,-37.3295C1386.4905,-64.5978 1430.1596,-132.0233 1430.1596,-196 1430.1596,-624 1430.1596,-624 1430.1596,-624 1430.1596,-679.8449 1410.9873,-696.2982 1370.1596,-734.4 1341.6011,-761.0517 1299.3288,-777.6293 1270.1429,-786.6152"/>
<polygon fill="#000000" stroke="#000000" points="1269.0135,-783.2991 1260.4092,-789.481 1270.9906,-790.0141 1269.0135,-783.2991"/>
</g>
<!-- xt -->
<g id="node37" class="node">
<title>xt</title>
<polygon fill="none" stroke="#ff0000" points="233.1596,-941.7984 270.3544,-978.7008 195.9647,-978.7008 233.1596,-941.7984"/>
<text text-anchor="middle" x="233.1596" y="-962.2" font-family="Times,serif" font-size="14.00" fill="#000000">xt</text>
</g>
<!-- hl&#45;&gt;xt -->
<g id="edge32" class="edge">
<title>hl-&gt;xt</title>
<path fill="none" stroke="#000000" d="M246.8023,-1031.2786C244.1036,-1018.4449 240.6379,-1001.9639 237.875,-988.8246"/>
<polygon fill="#000000" stroke="#000000" points="241.2347,-987.7928 235.7517,-978.727 234.3845,-989.2333 241.2347,-987.7928"/>
</g>
<!-- xt&#45;&gt;rj -->
<g id="edge86" class="edge">
<title>xt-&gt;rj</title>
<path fill="none" stroke="#000000" d="M237.0834,-945.4075C242.8308,-914.659 253.5484,-857.3199 259.95,-823.0709"/>
<polygon fill="#000000" stroke="#000000" points="263.3909,-823.711 261.7879,-813.2381 256.5101,-822.4248 263.3909,-823.711"/>
</g>
<!-- ns -->
<g id="node57" class="node">
<title>ns</title>
<polygon fill="none" stroke="#ff0000" points="101.1596,-856.1984 140.6433,-893.1008 61.6758,-893.1008 101.1596,-856.1984"/>
<text text-anchor="middle" x="101.1596" y="-876.6" font-family="Times,serif" font-size="14.00" fill="#000000">ns</text>
</g>
<!-- xt&#45;&gt;ns -->
<g id="edge87" class="edge">
<title>xt-&gt;ns</title>
<path fill="none" stroke="#000000" d="M218.0175,-956.5806C196.358,-942.5347 156.1566,-916.4647 129.0318,-898.8747"/>
<polygon fill="#000000" stroke="#000000" points="130.6746,-895.7685 120.38,-893.2641 126.8659,-901.6417 130.6746,-895.7685"/>
</g>
<!-- broadcaster -->
<g id="node38" class="node">
<title>broadcaster</title>
<polygon fill="none" stroke="#00ff00" points="1147.4501,-1236.7556 1067.0153,-1236.7556 1042.1596,-1313.5111 1017.3038,-1236.7556 936.869,-1236.7556 1001.9421,-1189.3181 977.0864,-1112.5626 1042.1596,-1160.0001 1107.2327,-1112.5626 1082.377,-1189.3181 1147.4501,-1236.7556"/>
<text text-anchor="middle" x="1042.1596" y="-1208.8368" font-family="Times,serif" font-size="14.00" fill="#000000">broadcaster</text>
</g>
<!-- broadcaster&#45;&gt;zs -->
<g id="edge35" class="edge">
<title>broadcaster-&gt;zs</title>
<path fill="none" stroke="#000000" d="M999.4996,-1182.368C953.551,-1149.3349 881.9322,-1097.8471 843.9075,-1070.5105"/>
<polygon fill="#000000" stroke="#000000" points="845.6031,-1067.419 835.4405,-1064.4235 841.517,-1073.1027 845.6031,-1067.419"/>
</g>
<!-- broadcaster&#45;&gt;dt -->
<g id="edge36" class="edge">
<title>broadcaster-&gt;dt</title>
<path fill="none" stroke="#000000" d="M1091.2856,-1162.9665C1121.5924,-1132.0772 1158.7782,-1094.1767 1180.9132,-1071.6163"/>
<polygon fill="#000000" stroke="#000000" points="1183.5738,-1073.9021 1188.0789,-1064.3128 1178.5771,-1068.9997 1183.5738,-1073.9021"/>
</g>
<!-- broadcaster&#45;&gt;sr -->
<g id="edge37" class="edge">
<title>broadcaster-&gt;sr</title>
<path fill="none" stroke="#000000" d="M1094.1845,-1197.8869C1202.5808,-1166.3212 1450.8846,-1094.0137 1551.5592,-1064.6967"/>
<polygon fill="#000000" stroke="#000000" points="1552.7752,-1067.988 1561.3978,-1061.8316 1550.818,-1061.2672 1552.7752,-1067.988"/>
</g>
<!-- broadcaster&#45;&gt;cg -->
<g id="edge38" class="edge">
<title>broadcaster-&gt;cg</title>
<path fill="none" stroke="#000000" d="M982.8907,-1202.9557C826.0609,-1174.6115 412.1596,-1088.2625 412.1596,-966.4 412.1596,-966.4 412.1596,-966.4 412.1596,-880.8 412.1596,-826.5791 397.3795,-764.1289 388.5677,-731.7148"/>
<polygon fill="#000000" stroke="#000000" points="391.8963,-730.6209 385.8381,-721.9289 385.1536,-732.5016 391.8963,-730.6209"/>
</g>
<!-- sr&#45;&gt;pf -->
<g id="edge63" class="edge">
<title>sr-&gt;pf</title>
<path fill="none" stroke="#000000" d="M1595.7917,-1027.8343C1600.5138,-996.5625 1612.8075,-942.1706 1622.5644,-909.032"/>
<polygon fill="#000000" stroke="#000000" points="1626.0323,-909.663 1625.6303,-899.0758 1619.3423,-907.6028 1626.0323,-909.663"/>
</g>
<!-- zd -->
<g id="node44" class="node">
<title>zd</title>
<polygon fill="none" stroke="#ff0000" points="1557.1596,-941.7984 1597.2673,-978.7008 1517.0518,-978.7008 1557.1596,-941.7984"/>
<text text-anchor="middle" x="1557.1596" y="-962.2" font-family="Times,serif" font-size="14.00" fill="#000000">zd</text>
</g>
<!-- sr&#45;&gt;zd -->
<g id="edge64" class="edge">
<title>sr-&gt;zd</title>
<path fill="none" stroke="#000000" d="M1587.652,-1035.0882C1581.6768,-1021.6283 1573.2726,-1002.6968 1566.8001,-988.1166"/>
<polygon fill="#000000" stroke="#000000" points="1569.9377,-986.5582 1562.6813,-978.8384 1563.5398,-989.3984 1569.9377,-986.5582"/>
</g>
<!-- cg&#45;&gt;qx -->
<g id="edge46" class="edge">
<title>cg-&gt;qx</title>
<path fill="none" stroke="#000000" d="M381.1786,-722.0496C379.0424,-750.2725 374.1596,-821.2907 374.1596,-880.8 374.1596,-1052 374.1596,-1052 374.1596,-1052 374.1596,-1168.6105 368.6179,-1198.1333 350.1596,-1313.2737 348.5479,-1323.3272 346.2322,-1334.1951 343.9468,-1343.9239"/>
<polygon fill="#000000" stroke="#000000" points="340.473,-1343.3975 341.5136,-1353.9411 347.2752,-1345.0498 340.473,-1343.3975"/>
</g>
<!-- cg&#45;&gt;rj -->
<g id="edge47" class="edge">
<title>cg-&gt;rj</title>
<path fill="none" stroke="#000000" d="M370.1375,-721.9955C353.546,-735.6327 323.5969,-757.7846 299.8321,-774.1538"/>
<polygon fill="#000000" stroke="#000000" points="297.6912,-771.3771 291.3927,-779.8964 301.6292,-777.1644 297.6912,-771.3771"/>
</g>
<!-- sk -->
<g id="node41" class="node">
<title>sk</title>
<polygon fill="none" stroke="#ff0000" points="555.1596,-171.3984 594.6433,-208.3008 515.6758,-208.3008 555.1596,-171.3984"/>
<text text-anchor="middle" x="555.1596" y="-191.8" font-family="Times,serif" font-size="14.00" fill="#000000">sk</text>
</g>
<!-- sk&#45;&gt;qr -->
<g id="edge39" class="edge">
<title>sk-&gt;qr</title>
<path fill="none" stroke="#000000" d="M547.2673,-178.6776C541.1186,-165.182 532.5491,-146.3729 525.961,-131.9129"/>
<polygon fill="#000000" stroke="#000000" points="529.1018,-130.3645 521.7707,-122.7156 522.7317,-133.2668 529.1018,-130.3645"/>
</g>
<!-- sk&#45;&gt;kx -->
<g id="edge40" class="edge">
<title>sk-&gt;kx</title>
<path fill="none" stroke="#000000" d="M551.6036,-208.3374C543.8597,-236.3304 526.1596,-306.9087 526.1596,-367.2 526.1596,-795.2 526.1596,-795.2 526.1596,-795.2 526.1596,-848.1862 532.7191,-869.1326 571.1596,-905.6 610.2976,-942.7292 673.2739,-957.3049 712.0497,-962.9422"/>
<polygon fill="#000000" stroke="#000000" points="711.9306,-966.4571 722.3048,-964.3065 712.8537,-959.5182 711.9306,-966.4571"/>
</g>
<!-- dj -->
<g id="node43" class="node">
<title>dj</title>
<polygon fill="none" stroke="#ff0000" points="1729.1596,-171.3984 1766.3544,-208.3008 1691.9647,-208.3008 1729.1596,-171.3984"/>
<text text-anchor="middle" x="1729.1596" y="-191.8" font-family="Times,serif" font-size="14.00" fill="#000000">dj</text>
</g>
<!-- xq&#45;&gt;dj -->
<g id="edge41" class="edge">
<title>xq-&gt;dj</title>
<path fill="none" stroke="#000000" d="M1729.1596,-256.8409C1729.1596,-244.8671 1729.1596,-230.5873 1729.1596,-218.872"/>
<polygon fill="#000000" stroke="#000000" points="1732.6597,-218.5845 1729.1596,-208.5846 1725.6597,-218.5846 1732.6597,-218.5845"/>
</g>
<!-- dj&#45;&gt;pf -->
<g id="edge74" class="edge">
<title>dj-&gt;pf</title>
<path fill="none" stroke="#000000" d="M1760.4465,-208.3755C1812.483,-231.2577 1911.1596,-285.4293 1911.1596,-367.2 1911.1596,-709.6 1911.1596,-709.6 1911.1596,-709.6 1911.1596,-766.7663 1890.4511,-785.1194 1845.1596,-820 1791.4465,-861.3663 1710.5366,-874.6008 1666.1364,-878.8261"/>
<polygon fill="#000000" stroke="#000000" points="1665.5995,-875.3592 1655.934,-879.6983 1666.1958,-882.3337 1665.5995,-875.3592"/>
</g>
<!-- dj&#45;&gt;sx -->
<g id="edge75" class="edge">
<title>dj-&gt;sx</title>
<path fill="none" stroke="#000000" d="M1713.6422,-186.5122C1690.7726,-172.5291 1647.5984,-146.1312 1618.6007,-128.4012"/>
<polygon fill="#000000" stroke="#000000" points="1620.0851,-125.2064 1609.7277,-122.976 1616.4336,-131.1786 1620.0851,-125.2064"/>
</g>
<!-- zd&#45;&gt;lc -->
<g id="edge43" class="edge">
<title>zd-&gt;lc</title>
<path fill="none" stroke="#000000" d="M1553.9424,-944.3691C1549.1794,-911.7519 1540.2968,-850.9241 1535.4768,-817.9166"/>
<polygon fill="#000000" stroke="#000000" points="1538.9181,-817.2595 1534.0098,-807.8702 1531.9915,-818.2711 1538.9181,-817.2595"/>
</g>
<!-- zd&#45;&gt;pf -->
<g id="edge44" class="edge">
<title>zd-&gt;pf</title>
<path fill="none" stroke="#000000" d="M1569.5309,-952.6469C1580.7534,-940.171 1597.5841,-921.4605 1611.2566,-906.261"/>
<polygon fill="#000000" stroke="#000000" points="1613.9864,-908.4597 1618.072,-898.6843 1608.7821,-903.7783 1613.9864,-908.4597"/>
</g>
<!-- pm&#45;&gt;tr -->
<g id="edge73" class="edge">
<title>pm-&gt;tr</title>
<path fill="none" stroke="#000000" d="M1732.2355,-607.0882C1740.3319,-593.4989 1751.7513,-574.3323 1760.4708,-559.6972"/>
<polygon fill="#000000" stroke="#000000" points="1763.6372,-561.2207 1765.7488,-550.8384 1757.6236,-557.6378 1763.6372,-561.2207"/>
</g>
<!-- qf&#45;&gt;sb -->
<g id="edge50" class="edge">
<title>qf-&gt;sb</title>
<path fill="none" stroke="#000000" d="M55.1809,-701.0794C83.098,-687.1045 139.1248,-659.0583 175.3444,-640.9273"/>
<polygon fill="#000000" stroke="#000000" points="177.1702,-643.9275 184.5457,-636.3213 174.0367,-637.6679 177.1702,-643.9275"/>
</g>
<!-- sb&#45;&gt;gj -->
<g id="edge65" class="edge">
<title>sb-&gt;gj</title>
<path fill="none" stroke="#000000" d="M209.1596,-599.2409C209.1596,-587.2671 209.1596,-572.9873 209.1596,-561.272"/>
<polygon fill="#000000" stroke="#000000" points="212.6597,-560.9845 209.1596,-550.9846 205.6597,-560.9846 212.6597,-560.9845"/>
</g>
<!-- gs&#45;&gt;rg -->
<g id="edge62" class="edge">
<title>gs-&gt;rg</title>
<path fill="none" stroke="#000000" d="M721.0183,-691.4244C724.9645,-688.9883 729.0895,-686.6846 733.1596,-684.8 795.3561,-655.9997 874.1572,-637.912 916.6543,-629.5243"/>
<polygon fill="#000000" stroke="#000000" points="917.4867,-632.9284 926.6443,-627.6002 916.1628,-626.0547 917.4867,-632.9284"/>
</g>
<!-- lz -->
<g id="node50" class="node">
<title>lz</title>
<polygon fill="none" stroke="#ff0000" points="1336.1596,-171.3984 1372.1871,-208.3008 1300.132,-208.3008 1336.1596,-171.3984"/>
<text text-anchor="middle" x="1336.1596" y="-191.8" font-family="Times,serif" font-size="14.00" fill="#000000">lz</text>
</g>
<!-- rb&#45;&gt;lz -->
<g id="edge58" class="edge">
<title>rb-&gt;lz</title>
<path fill="none" stroke="#000000" d="M1328.7869,-259.1096C1330.2371,-246.6965 1332.0338,-231.3163 1333.4905,-218.847"/>
<polygon fill="#000000" stroke="#000000" points="1336.9818,-219.1249 1334.6658,-208.7863 1330.0291,-218.3126 1336.9818,-219.1249"/>
</g>
<!-- lz&#45;&gt;tq -->
<g id="edge76" class="edge">
<title>lz-&gt;tq</title>
<path fill="none" stroke="#000000" d="M1345.5895,-208.3214C1354.1353,-220.1209 1366.3951,-238.7498 1373.1596,-256.8 1390.6314,-303.4217 1392.1596,-317.412 1392.1596,-367.2 1392.1596,-624 1392.1596,-624 1392.1596,-624 1392.1596,-679.0181 1373.4496,-693.947 1336.1596,-734.4 1318.0212,-754.0769 1292.0915,-769.6892 1271.3189,-780.1647"/>
<polygon fill="#000000" stroke="#000000" points="1269.6429,-777.0879 1262.1842,-784.6124 1272.7073,-783.3815 1269.6429,-777.0879"/>
</g>
<!-- lz&#45;&gt;vn -->
<g id="edge77" class="edge">
<title>lz-&gt;vn</title>
<path fill="none" stroke="#000000" d="M1336.1596,-171.2409C1336.1596,-159.2671 1336.1596,-144.9873 1336.1596,-133.272"/>
<polygon fill="#000000" stroke="#000000" points="1339.6597,-132.9845 1336.1596,-122.9846 1332.6597,-132.9846 1339.6597,-132.9845"/>
</g>
<!-- qn -->
<g id="node54" class="node">
<title>qn</title>
<polygon fill="none" stroke="#ff0000" points="1285.1596,-342.5984 1326.4337,-379.5008 1243.8854,-379.5008 1285.1596,-342.5984"/>
<text text-anchor="middle" x="1285.1596" y="-363" font-family="Times,serif" font-size="14.00" fill="#000000">qn</text>
</g>
<!-- zt&#45;&gt;qn -->
<g id="edge89" class="edge">
<title>zt-&gt;qn</title>
<path fill="none" stroke="#000000" d="M1258.9972,-435.0636C1264.1319,-421.7445 1271.1942,-403.4254 1276.6871,-389.1771"/>
<polygon fill="#000000" stroke="#000000" points="1280.028,-390.2409 1280.3594,-379.6513 1273.4965,-387.7229 1280.028,-390.2409"/>
</g>
<!-- dm&#45;&gt;tq -->
<g id="edge102" class="edge">
<title>dm-&gt;tq</title>
<path fill="none" stroke="#000000" d="M1170.392,-636.4415C1181.8989,-663.8025 1209.6384,-729.7607 1225.5051,-767.4884"/>
<polygon fill="#000000" stroke="#000000" points="1222.3512,-769.0175 1229.4543,-776.8786 1228.8038,-766.3037 1222.3512,-769.0175"/>
</g>
<!-- gp -->
<g id="node59" class="node">
<title>gp</title>
<polygon fill="none" stroke="#ff0000" points="1209.1596,-513.7984 1250.4337,-550.7008 1167.8854,-550.7008 1209.1596,-513.7984"/>
<text text-anchor="middle" x="1209.1596" y="-534.2" font-family="Times,serif" font-size="14.00" fill="#000000">gp</text>
</g>
<!-- dm&#45;&gt;gp -->
<g id="edge103" class="edge">
<title>dm-&gt;gp</title>
<path fill="none" stroke="#000000" d="M1174.2764,-606.2636C1181.1891,-592.8152 1190.7221,-574.2692 1198.0756,-559.9633"/>
<polygon fill="#000000" stroke="#000000" points="1201.3006,-561.3452 1202.7594,-550.8513 1195.0749,-558.145 1201.3006,-561.3452"/>
</g>
<!-- lx&#45;&gt;kx -->
<g id="edge104" class="edge">
<title>lx-&gt;kx</title>
<path fill="none" stroke="#000000" d="M765.7224,-722.1067C754.5782,-733.4686 739.5618,-751.3268 733.1596,-770.4 713.9654,-827.5821 727.4994,-899.3096 737.6998,-938.1879"/>
<polygon fill="#000000" stroke="#000000" points="734.4373,-939.5255 740.4585,-948.2431 741.1879,-937.6734 734.4373,-939.5255"/>
</g>
<!-- vp -->
<g id="node58" class="node">
<title>vp</title>
<polygon fill="none" stroke="#ff0000" points="723.1596,-599.3984 764.4337,-636.3008 681.8854,-636.3008 723.1596,-599.3984"/>
<text text-anchor="middle" x="723.1596" y="-619.8" font-family="Times,serif" font-size="14.00" fill="#000000">vp</text>
</g>
<!-- lx&#45;&gt;vp -->
<g id="edge105" class="edge">
<title>lx-&gt;vp</title>
<path fill="none" stroke="#000000" d="M769.1479,-694.2964C760.1857,-680.5971 746.9596,-660.3801 736.989,-645.1393"/>
<polygon fill="#000000" stroke="#000000" points="739.6723,-642.8477 731.2688,-636.3955 733.8145,-646.68 739.6723,-642.8477"/>
</g>
<!-- qn&#45;&gt;tq -->
<g id="edge79" class="edge">
<title>qn-&gt;tq</title>
<path fill="none" stroke="#000000" d="M1288.9608,-379.5202C1297.2387,-407.4779 1316.1596,-477.9889 1316.1596,-538.4 1316.1596,-624 1316.1596,-624 1316.1596,-624 1316.1596,-679.3538 1281.6895,-736.2791 1258.2879,-768.5473"/>
<polygon fill="#000000" stroke="#000000" points="1255.1803,-766.8607 1252.0189,-776.9729 1260.7963,-771.0393 1255.1803,-766.8607"/>
</g>
<!-- qn&#45;&gt;rb -->
<g id="edge80" class="edge">
<title>qn-&gt;rb</title>
<path fill="none" stroke="#000000" d="M1293.4565,-349.8776C1299.9205,-336.382 1308.9295,-317.5729 1315.8555,-303.1129"/>
<polygon fill="#000000" stroke="#000000" points="1319.0975,-304.4464 1320.2607,-293.9156 1312.7843,-301.4226 1319.0975,-304.4464"/>
</g>
<!-- cb&#45;&gt;kx -->
<g id="edge108" class="edge">
<title>cb-&gt;kx</title>
<path fill="none" stroke="#000000" d="M590.481,-293.9289C582.4701,-321.9046 564.1596,-392.4498 564.1596,-452.8 564.1596,-795.2 564.1596,-795.2 564.1596,-795.2 564.1596,-849.2492 576.9751,-867.3474 615.1596,-905.6 641.7798,-932.2678 682.2901,-948.578 711.2088,-957.5012"/>
<polygon fill="#000000" stroke="#000000" points="710.3313,-960.8913 720.9125,-960.3543 712.3059,-954.1756 710.3313,-960.8913"/>
</g>
<!-- cb&#45;&gt;sk -->
<g id="edge109" class="edge">
<title>cb-&gt;sk</title>
<path fill="none" stroke="#000000" d="M586.0787,-263.8636C579.9515,-250.4152 571.5018,-231.8692 564.9839,-217.5633"/>
<polygon fill="#000000" stroke="#000000" points="568.1636,-216.1002 560.8324,-208.4513 561.7935,-219.0024 568.1636,-216.1002"/>
</g>
<!-- ns&#45;&gt;rj -->
<g id="edge106" class="edge">
<title>ns-&gt;rj</title>
<path fill="none" stroke="#000000" d="M118.0927,-871.9617C146.3695,-857.2026 203.4566,-827.406 237.5922,-809.5888"/>
<polygon fill="#000000" stroke="#000000" points="239.323,-812.6336 246.5686,-804.9036 236.084,-806.428 239.323,-812.6336"/>
</g>
<!-- ns&#45;&gt;qf -->
<g id="edge107" class="edge">
<title>ns-&gt;qf</title>
<path fill="none" stroke="#000000" d="M94.4175,-862.4786C82.7381,-830.7404 58.7919,-765.6676 46.241,-731.561"/>
<polygon fill="#000000" stroke="#000000" points="49.4762,-730.2175 42.7379,-722.0415 42.9068,-732.635 49.4762,-730.2175"/>
</g>
<!-- vp&#45;&gt;kx -->
<g id="edge91" class="edge">
<title>vp-&gt;kx</title>
<path fill="none" stroke="#000000" d="M703.0658,-636.422C687.8303,-647.1238 668.047,-664.0984 659.1596,-684.8 650.4632,-705.0566 655.4616,-712.6679 659.1596,-734.4 672.3143,-811.7081 710.8514,-896.5596 731.9501,-939.0082"/>
<polygon fill="#000000" stroke="#000000" points="728.9204,-940.7737 736.5429,-948.1323 735.173,-937.6264 728.9204,-940.7737"/>
</g>
<!-- vp&#45;&gt;br -->
<g id="edge92" class="edge">
<title>vp-&gt;br</title>
<path fill="none" stroke="#000000" d="M723.1596,-599.2409C723.1596,-587.2671 723.1596,-572.9873 723.1596,-561.272"/>
<polygon fill="#000000" stroke="#000000" points="726.6597,-560.9845 723.1596,-550.9846 719.6597,-560.9846 726.6597,-560.9845"/>
</g>
<!-- gp&#45;&gt;tq -->
<g id="edge100" class="edge">
<title>gp-&gt;tq</title>
<path fill="none" stroke="#000000" d="M1212.0595,-550.9058C1214.7961,-563.1488 1218.8184,-582.3625 1221.1596,-599.2 1229.3974,-658.4467 1233.8537,-728.4028 1235.846,-766.6585"/>
<polygon fill="#000000" stroke="#000000" points="1232.3691,-767.2077 1236.3653,-777.0199 1239.3603,-766.8572 1232.3691,-767.2077"/>
</g>
<!-- gp&#45;&gt;zt -->
<g id="edge101" class="edge">
<title>gp-&gt;zt</title>
<path fill="none" stroke="#000000" d="M1217.8612,-521.0776C1224.6406,-507.582 1234.0891,-488.7729 1241.3529,-474.3129"/>
<polygon fill="#000000" stroke="#000000" points="1244.6116,-475.6227 1245.973,-465.1156 1238.3565,-472.4804 1244.6116,-475.6227"/>
</g>
</g>
</svg>